<svg width="20" height="20" viewBox="0 0 20 20" fill="none" xmlns="http://www.w3.org/2000/svg">
<g clip-path="url(#clip0_2165_1069)">
<path fill-rule="evenodd" clip-rule="evenodd" d="M10 3C6.13401 3 3 6.13401 3 10C3 13.866 6.13401 17 10 17C13.866 17 17 13.866 17 10C17 6.13401 13.866 3 10 3ZM1 10C1 5.02944 5.02944 1 10 1C14.9706 1 19 5.02944 19 10C19 14.9706 14.9706 19 10 19C5.02944 19 1 14.9706 1 10Z" fill="currentColor"/>
<path fill-rule="evenodd" clip-rule="evenodd" d="M13.2071 7.79289C13.5976 8.18342 13.5976 8.81658 13.2071 9.20711L10.2071 12.2071C10.0196 12.3946 9.76522 12.5 9.5 12.5C9.23478 12.5 8.98043 12.3946 8.79289 12.2071L7.29289 10.7071C6.90237 10.3166 6.90237 9.68342 7.29289 9.29289C7.68342 8.90237 8.31658 8.90237 8.70711 9.29289L9.5 10.0858L11.7929 7.79289C12.1834 7.40237 12.8166 7.40237 13.2071 7.79289Z" fill="currentColor"/>
</g>
<defs>
<clipPath id="clip0_2165_1069">
<rect width="20" height="20" fill="white"/>
</clipPath>
</defs>
</svg>
