<svg width="20" height="20" viewBox="0 0 20 20" fill="none" xmlns="http://www.w3.org/2000/svg">
<g clip-path="url(#clip0_30564_205522)">
<path d="M10 20C8.7 20 7.7 19.2 7.4 17.9C7.4 17.8 7.3 17.7 7.2 17.6C7.1 17.5 7 17.4 6.9 17.4C6.8 17.4 6.7 17.3 6.6 17.3C6.5 17.3 6.4 17.3 6.3 17.4C5.2 18.1 3.9 17.9 3 17C2.1 16.1 1.9 14.8 2.6 13.7C2.7 13.6 2.7 13.5 2.7 13.4C2.7 13.3 2.7 13.2 2.6 13.1C2.5 13 2.5 12.9 2.4 12.8C2.3 12.7 2.2 12.7 2.1 12.6C0.8 12.3 0 11.3 0 10C0 8.7 0.8 7.7 2.1 7.4C2.2 7.4 2.3 7.3 2.4 7.2C2.5 7.1 2.5 7 2.6 6.9C2.6 6.8 2.7 6.7 2.7 6.6C2.7 6.5 2.7 6.4 2.6 6.3C1.9 5.2 2 3.8 2.9 2.9C3.8 2 5.2 1.9 6.3 2.5C6.5 2.6 6.7 2.6 7 2.6C7.2 2.5 7.4 2.3 7.4 2.1C7.7 0.8 8.7 0 10 0C11.3 0 12.3 0.8 12.6 2.1C12.6 2.2 12.7 2.3 12.8 2.4C12.9 2.5 13 2.6 13.1 2.6C13.2 2.6 13.3 2.7 13.4 2.7C13.5 2.7 13.6 2.7 13.7 2.6C14.8 1.9 16.1 2.1 17 3C17.9 3.9 18.1 5.2 17.4 6.3C17.3 6.4 17.3 6.5 17.3 6.6C17.3 6.7 17.3 6.8 17.4 6.9C17.4 7 17.5 7.1 17.6 7.2C17.7 7.3 17.8 7.3 17.9 7.4C19.2 7.7 20 8.7 20 10C20 11.3 19.2 12.3 17.9 12.6C17.8 12.6 17.7 12.7 17.6 12.8C17.5 12.9 17.4 13 17.4 13.1C17.4 13.2 17.3 13.3 17.3 13.4C17.3 13.5 17.3 13.6 17.4 13.7C18.1 14.8 17.9 16.1 17 17C16.1 17.9 14.8 18.1 13.7 17.4C13.6 17.3 13.5 17.3 13.4 17.3C13.3 17.3 13.2 17.3 13.1 17.4C13 17.4 12.9 17.5 12.8 17.6C12.7 17.7 12.7 17.8 12.6 17.9C12.3 19.2 11.3 20 10 20ZM6.6 15.4C7 15.4 7.3 15.5 7.6 15.6C8 15.8 8.4 16 8.6 16.3C9 16.6 9.2 17 9.3 17.4C9.4 18 9.9 18 10 18C10.1 18 10.6 18 10.7 17.4C10.8 17 11 16.6 11.3 16.3C11.6 16 11.9 15.7 12.3 15.6C12.7 15.4 13.1 15.4 13.6 15.4C14 15.4 14.4 15.6 14.8 15.8C15.2 16.1 15.6 15.8 15.7 15.7C15.8 15.6 16.1 15.3 15.8 14.8C15.6 14.4 15.4 14 15.4 13.6C15.4 13.2 15.4 12.7 15.6 12.4C15.8 12 16 11.6 16.3 11.4C16.6 11.1 17 10.9 17.4 10.8C18 10.6 18 10.1 18 10C18 9.9 18 9.4 17.4 9.3C17 9.2 16.6 9 16.3 8.7C16 8.4 15.7 8.1 15.6 7.7C15.4 7.3 15.4 6.9 15.4 6.4C15.4 6 15.6 5.6 15.8 5.2C16.1 4.7 15.8 4.4 15.7 4.3C15.6 4.2 15.3 3.9 14.8 4.2C14.4 4.4 14 4.6 13.6 4.6C13.2 4.6 12.7 4.6 12.3 4.4C11.9 4.2 11.5 4 11.3 3.7C11 3.4 10.8 3 10.7 2.6C10.6 2 10.1 2 10 2C9.9 2 9.4 2 9.3 2.6C9.1 3.4 8.5 4.1 7.7 4.4C6.9 4.8 6 4.7 5.2 4.2C4.8 4 4.4 4.2 4.3 4.3C4.2 4.4 4 4.8 4.2 5.2C4.5 5.6 4.6 6 4.6 6.4C4.6 6.8 4.6 7.3 4.4 7.7C4.3 8.1 4 8.4 3.7 8.7C3.4 9 3 9.2 2.6 9.3C2 9.4 2 9.9 2 10C2 10.1 2 10.6 2.6 10.7C3 10.8 3.4 11 3.7 11.3C4 11.6 4.3 11.9 4.4 12.3C4.6 12.7 4.6 13.1 4.6 13.6C4.6 14.1 4.4 14.4 4.2 14.8C3.9 15.3 4.2 15.6 4.3 15.7C4.4 15.8 4.7 16.1 5.2 15.8C5.6 15.6 6 15.4 6.4 15.4C6.5 15.4 6.6 15.4 6.6 15.4Z" fill="currentColor"/>
<path d="M10 14C7.8 14 6 12.2 6 10C6 7.8 7.8 6 10 6C12.2 6 14 7.8 14 10C14 12.2 12.2 14 10 14ZM10 8C8.9 8 8 8.9 8 10C8 11.1 8.9 12 10 12C11.1 12 12 11.1 12 10C12 8.9 11.1 8 10 8Z" fill="currentColor"/>
</g>
<defs>
<clipPath id="clip0_30564_205522">
<rect width="20" height="20" fill="white"/>
</clipPath>
</defs>
</svg>
